<mxfile host="app.diagrams.net" agent="Mozilla/5.0 (Windows NT 10.0; Win64; x64) AppleWebKit/537.36 (KHTML, like Gecko) Chrome/129.0.0.0 Safari/537.36" version="24.7.17">
  <diagram name="Page-1" id="ZVggrKBnjbbf6Nt-X9WH">
    <mxGraphModel dx="1050" dy="557" grid="1" gridSize="10" guides="1" tooltips="1" connect="1" arrows="1" fold="1" page="1" pageScale="1" pageWidth="827" pageHeight="1169" math="0" shadow="0">
      <root>
        <mxCell id="0" />
        <mxCell id="1" parent="0" />
        <mxCell id="ZwZqcs8QHgEaD5T6zvfT-1" value="&lt;font style=&quot;font-size: 21px;&quot;&gt;&lt;b&gt;Système&lt;/b&gt;&lt;/font&gt;" style="rounded=0;whiteSpace=wrap;html=1;" vertex="1" parent="1">
          <mxGeometry x="270" y="30" width="450" height="530" as="geometry" />
        </mxCell>
        <mxCell id="ZwZqcs8QHgEaD5T6zvfT-2" value="UtilisateurGénérique" style="shape=umlActor;verticalLabelPosition=bottom;verticalAlign=top;html=1;outlineConnect=0;" vertex="1" parent="1">
          <mxGeometry x="180" y="280" width="30" height="60" as="geometry" />
        </mxCell>
        <mxCell id="ZwZqcs8QHgEaD5T6zvfT-3" value="Client" style="shape=umlActor;verticalLabelPosition=bottom;verticalAlign=top;html=1;outlineConnect=0;" vertex="1" parent="1">
          <mxGeometry x="60" y="190" width="30" height="60" as="geometry" />
        </mxCell>
        <mxCell id="ZwZqcs8QHgEaD5T6zvfT-16" style="edgeStyle=orthogonalEdgeStyle;rounded=0;orthogonalLoop=1;jettySize=auto;html=1;" edge="1" parent="1" source="ZwZqcs8QHgEaD5T6zvfT-4">
          <mxGeometry relative="1" as="geometry">
            <mxPoint x="190" y="360" as="targetPoint" />
          </mxGeometry>
        </mxCell>
        <mxCell id="ZwZqcs8QHgEaD5T6zvfT-4" value="Chauffeur" style="shape=umlActor;verticalLabelPosition=bottom;verticalAlign=top;html=1;outlineConnect=0;" vertex="1" parent="1">
          <mxGeometry x="60" y="400" width="30" height="60" as="geometry" />
        </mxCell>
        <mxCell id="ZwZqcs8QHgEaD5T6zvfT-5" value="Service Géolocalisation" style="shape=umlActor;verticalLabelPosition=bottom;verticalAlign=top;html=1;" vertex="1" parent="1">
          <mxGeometry x="860" y="120" width="30" height="60" as="geometry" />
        </mxCell>
        <mxCell id="ZwZqcs8QHgEaD5T6zvfT-6" value="Service Paiement" style="shape=umlActor;verticalLabelPosition=bottom;verticalAlign=top;html=1;" vertex="1" parent="1">
          <mxGeometry x="860" y="240" width="30" height="60" as="geometry" />
        </mxCell>
        <mxCell id="ZwZqcs8QHgEaD5T6zvfT-24" style="edgeStyle=orthogonalEdgeStyle;rounded=0;orthogonalLoop=1;jettySize=auto;html=1;" edge="1" parent="1">
          <mxGeometry relative="1" as="geometry">
            <mxPoint x="210" y="360" as="targetPoint" />
            <mxPoint x="870" y="550" as="sourcePoint" />
            <Array as="points">
              <mxPoint x="870" y="590" />
              <mxPoint x="211" y="590" />
            </Array>
          </mxGeometry>
        </mxCell>
        <mxCell id="ZwZqcs8QHgEaD5T6zvfT-7" value="Admin" style="shape=umlActor;verticalLabelPosition=bottom;verticalAlign=top;html=1;" vertex="1" parent="1">
          <mxGeometry x="860" y="470" width="30" height="60" as="geometry" />
        </mxCell>
        <mxCell id="ZwZqcs8QHgEaD5T6zvfT-26" style="edgeStyle=orthogonalEdgeStyle;rounded=0;orthogonalLoop=1;jettySize=auto;html=1;" edge="1" parent="1" source="ZwZqcs8QHgEaD5T6zvfT-8">
          <mxGeometry relative="1" as="geometry">
            <mxPoint x="882" y="550" as="targetPoint" />
          </mxGeometry>
        </mxCell>
        <mxCell id="ZwZqcs8QHgEaD5T6zvfT-8" value="SuperAdmin" style="shape=umlActor;verticalLabelPosition=bottom;verticalAlign=top;html=1;" vertex="1" parent="1">
          <mxGeometry x="867" y="615" width="30" height="60" as="geometry" />
        </mxCell>
        <mxCell id="ZwZqcs8QHgEaD5T6zvfT-9" value="Service AuthentificationDocuments" style="shape=umlActor;verticalLabelPosition=bottom;verticalAlign=top;html=1;" vertex="1" parent="1">
          <mxGeometry x="860" y="360" width="30" height="60" as="geometry" />
        </mxCell>
        <mxCell id="ZwZqcs8QHgEaD5T6zvfT-13" value="API OpenStreetMap" style="shape=umlActor;verticalLabelPosition=bottom;verticalAlign=top;html=1;" vertex="1" parent="1">
          <mxGeometry x="860" y="14" width="30" height="60" as="geometry" />
        </mxCell>
        <mxCell id="ZwZqcs8QHgEaD5T6zvfT-15" style="edgeStyle=orthogonalEdgeStyle;rounded=0;orthogonalLoop=1;jettySize=auto;html=1;entryX=0.5;entryY=0;entryDx=0;entryDy=0;entryPerimeter=0;" edge="1" parent="1" source="ZwZqcs8QHgEaD5T6zvfT-3" target="ZwZqcs8QHgEaD5T6zvfT-2">
          <mxGeometry relative="1" as="geometry" />
        </mxCell>
        <mxCell id="ZwZqcs8QHgEaD5T6zvfT-17" value="" style="endArrow=none;html=1;rounded=0;exitX=1;exitY=0.3333333333333333;exitDx=0;exitDy=0;exitPerimeter=0;entryX=-0.002;entryY=0.514;entryDx=0;entryDy=0;entryPerimeter=0;" edge="1" parent="1" target="ZwZqcs8QHgEaD5T6zvfT-1">
          <mxGeometry width="50" height="50" relative="1" as="geometry">
            <mxPoint x="218" y="300" as="sourcePoint" />
            <mxPoint x="258" y="300" as="targetPoint" />
          </mxGeometry>
        </mxCell>
        <mxCell id="ZwZqcs8QHgEaD5T6zvfT-18" value="" style="endArrow=none;html=1;rounded=0;entryX=0;entryY=0.3333333333333333;entryDx=0;entryDy=0;entryPerimeter=0;" edge="1" parent="1" target="ZwZqcs8QHgEaD5T6zvfT-13">
          <mxGeometry width="50" height="50" relative="1" as="geometry">
            <mxPoint x="720" y="80" as="sourcePoint" />
            <mxPoint x="770" y="30" as="targetPoint" />
          </mxGeometry>
        </mxCell>
        <mxCell id="ZwZqcs8QHgEaD5T6zvfT-19" value="" style="endArrow=none;html=1;rounded=0;entryX=0;entryY=0.3333333333333333;entryDx=0;entryDy=0;entryPerimeter=0;" edge="1" parent="1" target="ZwZqcs8QHgEaD5T6zvfT-5">
          <mxGeometry width="50" height="50" relative="1" as="geometry">
            <mxPoint x="720" y="190" as="sourcePoint" />
            <mxPoint x="770" y="140" as="targetPoint" />
          </mxGeometry>
        </mxCell>
        <mxCell id="ZwZqcs8QHgEaD5T6zvfT-20" value="" style="endArrow=none;html=1;rounded=0;" edge="1" parent="1">
          <mxGeometry width="50" height="50" relative="1" as="geometry">
            <mxPoint x="720" y="260" as="sourcePoint" />
            <mxPoint x="850" y="260" as="targetPoint" />
          </mxGeometry>
        </mxCell>
        <mxCell id="ZwZqcs8QHgEaD5T6zvfT-21" value="" style="endArrow=none;html=1;rounded=0;exitX=1.006;exitY=0.667;exitDx=0;exitDy=0;exitPerimeter=0;" edge="1" parent="1" source="ZwZqcs8QHgEaD5T6zvfT-1">
          <mxGeometry width="50" height="50" relative="1" as="geometry">
            <mxPoint x="720" y="390" as="sourcePoint" />
            <mxPoint x="850" y="380" as="targetPoint" />
          </mxGeometry>
        </mxCell>
        <mxCell id="ZwZqcs8QHgEaD5T6zvfT-22" value="" style="endArrow=none;html=1;rounded=0;" edge="1" parent="1">
          <mxGeometry width="50" height="50" relative="1" as="geometry">
            <mxPoint x="720" y="490" as="sourcePoint" />
            <mxPoint x="850" y="490" as="targetPoint" />
          </mxGeometry>
        </mxCell>
        <mxCell id="ZwZqcs8QHgEaD5T6zvfT-28" value="" style="line;strokeWidth=1;fillColor=none;align=left;verticalAlign=middle;spacingTop=-1;spacingLeft=3;spacingRight=3;rotatable=0;labelPosition=right;points=[];portConstraint=eastwest;strokeColor=inherit;" vertex="1" parent="1">
          <mxGeometry x="869" width="13" height="38" as="geometry" />
        </mxCell>
        <mxCell id="ZwZqcs8QHgEaD5T6zvfT-29" value="" style="line;strokeWidth=1;fillColor=none;align=left;verticalAlign=middle;spacingTop=-1;spacingLeft=3;spacingRight=3;rotatable=0;labelPosition=right;points=[];portConstraint=eastwest;strokeColor=inherit;" vertex="1" parent="1">
          <mxGeometry x="869" y="106" width="13" height="38" as="geometry" />
        </mxCell>
        <mxCell id="ZwZqcs8QHgEaD5T6zvfT-30" value="" style="line;strokeWidth=1;fillColor=none;align=left;verticalAlign=middle;spacingTop=-1;spacingLeft=3;spacingRight=3;rotatable=0;labelPosition=right;points=[];portConstraint=eastwest;strokeColor=inherit;" vertex="1" parent="1">
          <mxGeometry x="869" y="226" width="13" height="38" as="geometry" />
        </mxCell>
        <mxCell id="ZwZqcs8QHgEaD5T6zvfT-31" value="" style="line;strokeWidth=1;fillColor=none;align=left;verticalAlign=middle;spacingTop=-1;spacingLeft=3;spacingRight=3;rotatable=0;labelPosition=right;points=[];portConstraint=eastwest;strokeColor=inherit;" vertex="1" parent="1">
          <mxGeometry x="869" y="347" width="13" height="38" as="geometry" />
        </mxCell>
      </root>
    </mxGraphModel>
  </diagram>
</mxfile>
